<?xml version="1.0" standalone="no"?>
<!DOCTYPE svg PUBLIC "-//W3C//DTD SVG 20010904//EN"
 "http://www.w3.org/TR/2001/REC-SVG-20010904/DTD/svg10.dtd">
<svg version="1.0" xmlns="http://www.w3.org/2000/svg"
 width="1280.000000pt" height="1164.000000pt" viewBox="0 0 1280.000000 1164.000000"
 preserveAspectRatio="xMidYMid meet">
<g transform="translate(0.000000,1164.000000) scale(0.100000,-0.100000)"
fill="#000000" stroke="none">
<path d="M11710 11589 c-392 -50 -797 -255 -1032 -522 -184 -209 -320 -485
-408 -831 -113 -443 -95 -717 96 -1481 70 -280 119 -503 139 -634 85 -565 -17
-1112 -253 -1356 -66 -68 -117 -98 -209 -124 l-72 -20 -108 30 c-288 78 -502
121 -748 151 -144 17 -910 17 -1170 -1 -880 -59 -1057 -75 -1432 -131 -240
-35 -409 -62 -608 -94 -577 -95 -925 -128 -1335 -128 -334 0 -562 18 -845 67
-405 70 -715 237 -1090 585 -125 116 -203 177 -314 244 -209 126 -489 206
-724 206 l-98 0 -37 43 c-250 293 -686 523 -957 505 l-50 -3 1 -100 c1 -85 5
-110 29 -168 15 -37 25 -70 22 -74 -3 -3 -41 9 -84 27 -103 43 -168 66 -284
100 -53 15 -107 31 -119 35 -22 7 -23 5 -17 -31 39 -251 112 -459 212 -599 44
-62 181 -199 248 -249 20 -16 37 -33 37 -38 0 -5 -24 -35 -53 -66 -111 -119
-160 -199 -207 -341 -38 -113 -59 -274 -60 -451 0 -176 -22 -359 -65 -548
l-36 -162 20 -29 c91 -128 297 -231 461 -231 110 0 260 52 362 125 26 19 54
35 61 35 7 0 72 -60 143 -133 140 -142 136 -137 553 -767 210 -318 309 -448
456 -595 152 -153 382 -329 568 -434 32 -18 61 -40 64 -48 8 -19 -118 -147
-317 -321 -260 -227 -550 -527 -835 -862 -49 -58 -126 -142 -170 -187 -165
-166 -254 -334 -394 -743 -120 -352 -126 -374 -126 -500 0 -98 2 -109 30 -159
41 -74 89 -104 174 -109 94 -5 166 23 240 97 63 62 69 73 178 335 101 244 170
377 241 472 91 119 164 175 325 245 147 65 452 220 577 294 326 193 491 321
945 735 61 55 117 100 126 100 21 0 104 -90 172 -185 64 -90 157 -281 201
-415 36 -108 239 -838 307 -1103 21 -82 47 -206 58 -275 l19 -126 -22 -17
c-11 -10 -55 -45 -97 -78 -157 -124 -224 -251 -185 -346 34 -80 65 -98 261
-150 185 -49 259 -50 350 -6 117 58 209 189 284 404 39 111 65 238 90 442 45
355 51 667 26 1235 -9 184 -20 432 -25 550 -12 270 -13 427 -1 434 5 3 40 -8
77 -25 404 -184 1037 -282 1609 -250 349 20 625 64 826 133 49 16 93 27 98 24
5 -3 9 -140 10 -313 0 -170 5 -375 11 -458 20 -316 7 -533 -49 -810 -61 -296
-91 -371 -177 -440 -87 -69 -183 -139 -232 -169 -148 -92 -214 -150 -273 -239
-94 -145 -62 -281 85 -363 175 -96 376 -59 640 119 118 79 153 112 315 297 74
85 161 182 192 215 45 47 69 86 112 180 275 603 482 941 785 1286 123 140 344
353 370 356 11 2 33 -20 62 -60 217 -302 626 -718 1171 -1195 150 -131 188
-169 193 -195 24 -110 36 -217 36 -323 0 -155 -31 -349 -67 -419 -86 -167 -87
-170 -91 -237 -7 -113 42 -171 179 -213 64 -19 123 -17 211 8 167 48 265 140
355 335 139 300 150 850 27 1342 -50 203 -88 290 -237 545 -181 308 -250 464
-292 655 -22 100 -30 326 -16 442 62 518 11 1136 -145 1750 -15 62 -24 125
-24 175 0 94 -21 263 -50 400 -12 54 -24 110 -27 125 -4 23 8 46 79 140 354
472 475 783 550 1403 17 147 17 729 0 890 -59 545 -90 802 -133 1100 -50 344
-61 556 -35 685 43 216 164 358 375 439 96 37 205 58 377 71 172 14 303 47
419 104 142 71 220 149 264 267 27 71 26 103 -5 202 -47 148 -126 250 -262
340 -195 130 -517 193 -802 156z"/>
</g>
</svg>
